<svg width="457" height="102" viewBox="0 0 457 102" fill="none" xmlns="http://www.w3.org/2000/svg">
<path d="M41.7988 99H1.68164V94.3662C2.7819 94.2816 3.861 94.1758 4.91895 94.0488C5.97689 93.9219 6.88672 93.7103 7.64844 93.4141C9.0026 92.9062 9.95475 92.1868 10.5049 91.2559C11.055 90.2826 11.3301 89.013 11.3301 87.4473V50.5039C11.3301 49.0228 10.9915 47.7321 10.3145 46.6318C9.63737 45.4893 8.79102 44.5794 7.77539 43.9023C7.01367 43.3945 5.84993 42.9079 4.28418 42.4424C2.76074 41.9769 1.36426 41.6807 0.0947266 41.5537V36.9199L31.1982 35.2695L32.1504 36.2217V86.6221C32.1504 88.1032 32.4678 89.3727 33.1025 90.4307C33.7373 91.4463 34.6471 92.208 35.832 92.7158C36.6784 93.0967 37.6094 93.4352 38.625 93.7314C39.6406 94.0277 40.6986 94.2393 41.7988 94.3662V99ZM32.5312 12.418C32.5312 15.6341 31.2829 18.3848 28.7861 20.6699C26.3317 22.9128 23.4118 24.0342 20.0264 24.0342C16.5986 24.0342 13.6364 22.9128 11.1396 20.6699C8.68522 18.3848 7.45801 15.6341 7.45801 12.418C7.45801 9.20182 8.68522 6.45117 11.1396 4.16602C13.6364 1.88086 16.5986 0.738281 20.0264 0.738281C23.4541 0.738281 26.3952 1.88086 28.8496 4.16602C31.304 6.45117 32.5312 9.20182 32.5312 12.418ZM86.1055 101.412C80.6042 101.412 75.4626 100.735 70.6807 99.3809C65.9411 98.0267 61.9209 96.4186 58.6201 94.5566L54.2402 99H48.8447L48.0195 66.4365H53.4785C54.7057 69.5257 56.2715 72.7842 58.1758 76.2119C60.0801 79.6396 62.2806 82.7077 64.7773 85.416C67.3587 88.2513 70.2363 90.5576 73.4102 92.335C76.6263 94.1123 80.3714 95.001 84.6455 95.001C90.4007 95.001 94.8018 93.6045 97.8486 90.8115C100.938 87.9762 102.482 84.4215 102.482 80.1475C102.482 76.6351 101.171 73.694 98.5469 71.3242C95.9655 68.9121 91.9453 66.8385 86.4863 65.1035C82.9316 63.9609 79.652 62.903 76.6475 61.9297C73.6852 60.9564 70.8923 59.9619 68.2686 58.9463C62.2171 56.5342 57.7103 53.0853 54.748 48.5996C51.8281 44.1139 50.3682 39.0993 50.3682 33.5557C50.3682 30.0433 51.1299 26.679 52.6533 23.4629C54.1768 20.2044 56.3984 17.2845 59.3184 14.7031C62.1113 12.291 65.6872 10.3232 70.0459 8.7998C74.4046 7.27637 79.1442 6.51465 84.2646 6.51465C89.2581 6.51465 93.9342 7.21289 98.293 8.60938C102.652 9.96354 106.079 11.3389 108.576 12.7354L112.448 8.92676H117.971L118.479 39.6494H113.02C111.75 36.3486 110.248 32.9844 108.513 29.5566C106.82 26.0866 105.021 23.209 103.117 20.9238C101.044 18.4694 98.6527 16.5228 95.9443 15.084C93.236 13.6029 90.0622 12.8623 86.4229 12.8623C81.8525 12.8623 78.1074 14.153 75.1875 16.7344C72.3099 19.3158 70.8711 22.5107 70.8711 26.3193C70.8711 29.9163 72.1195 32.8574 74.6162 35.1426C77.1553 37.4277 81.0908 39.4378 86.4229 41.1729C89.5544 42.2308 92.7493 43.2887 96.0078 44.3467C99.2663 45.4046 102.165 46.4202 104.704 47.3936C110.84 49.7633 115.495 53.043 118.669 57.2324C121.885 61.3796 123.493 66.5423 123.493 72.7207C123.493 76.6139 122.583 80.3802 120.764 84.0195C118.944 87.6589 116.49 90.6846 113.4 93.0967C110.015 95.7627 106.101 97.8151 101.657 99.2539C97.2139 100.693 92.0299 101.412 86.1055 101.412ZM258.19 99H220.358V94.3662C221.289 94.2393 222.263 94.1335 223.278 94.0488C224.294 93.9642 225.14 93.7526 225.817 93.4141C226.748 92.9909 227.341 92.2926 227.595 91.3193C227.849 90.3037 227.976 89.013 227.976 87.4473V57.8037C227.976 53.445 227.193 50.1865 225.627 48.0283C224.104 45.8278 221.903 44.7275 219.025 44.7275C217.206 44.7275 215.576 45.0238 214.138 45.6162C212.741 46.1663 211.451 46.8646 210.266 47.7109C209.038 48.5996 208.086 49.4883 207.409 50.377C206.732 51.2656 206.161 52.0273 205.695 52.6621V86.749C205.695 88.2725 205.865 89.5208 206.203 90.4941C206.584 91.4251 207.261 92.1657 208.234 92.7158C208.911 93.0967 209.673 93.4352 210.52 93.7314C211.408 94.0277 212.339 94.2393 213.312 94.3662V99H177.067V94.3662C177.871 94.2816 178.845 94.1758 179.987 94.0488C181.13 93.9219 181.976 93.7103 182.526 93.4141C183.415 92.9486 183.986 92.2715 184.24 91.3828C184.536 90.4941 184.685 89.1823 184.685 87.4473V57.8037C184.685 53.445 183.902 50.1865 182.336 48.0283C180.812 45.8278 178.612 44.7275 175.734 44.7275C173.915 44.7275 172.285 45.0238 170.847 45.6162C169.45 46.1663 168.16 46.8646 166.975 47.7109C165.747 48.5996 164.795 49.4883 164.118 50.377C163.441 51.2656 162.87 52.0273 162.404 52.6621V86.749C162.404 88.2301 162.595 89.4574 162.976 90.4307C163.356 91.404 164.034 92.1657 165.007 92.7158C165.684 93.0967 166.446 93.4352 167.292 93.7314C168.181 94.0277 169.112 94.2393 170.085 94.3662V99H132.062V94.3662C133.163 94.2816 134.242 94.1758 135.3 94.0488C136.358 93.9219 137.268 93.7103 138.029 93.4141C139.383 92.9062 140.314 92.1868 140.822 91.2559C141.33 90.2826 141.584 89.013 141.584 87.4473V50.5039C141.584 49.1497 141.224 47.8379 140.505 46.5684C139.785 45.2565 138.918 44.2409 137.902 43.5215C137.141 43.0137 136.167 42.5905 134.982 42.252C133.84 41.9134 132.57 41.6807 131.174 41.5537V36.9199L161.452 35.2695L162.404 36.2217V45.1719H162.658C163.843 44.1139 165.24 42.8656 166.848 41.4268C168.498 39.9456 170.043 38.7607 171.481 37.8721C173.047 36.8564 175.057 36.0101 177.512 35.333C179.966 34.6559 182.653 34.3174 185.573 34.3174C190.397 34.3174 194.418 35.3753 197.634 37.4912C200.892 39.5648 203.199 42.3366 204.553 45.8066H205.124C206.351 44.6641 207.854 43.3311 209.631 41.8076C211.408 40.2419 213.037 38.9935 214.519 38.0625C216.169 37.0046 218.264 36.1159 220.803 35.3965C223.384 34.6771 226.135 34.3174 229.055 34.3174C235.445 34.3174 240.354 36.2005 243.781 39.9668C247.251 43.7331 248.986 49.0863 248.986 56.0264V86.876C248.986 88.4417 249.219 89.7113 249.685 90.6846C250.15 91.6156 250.996 92.335 252.224 92.8428C252.901 93.139 253.726 93.4352 254.699 93.7314C255.715 94.0277 256.879 94.2393 258.19 94.3662V99ZM336.647 97.667C334.785 98.471 332.585 99.2116 330.046 99.8887C327.507 100.566 324.82 100.904 321.984 100.904C316.779 100.904 312.95 100.143 310.495 98.6191C308.041 97.0534 306.369 94.8317 305.48 91.9541H305.1C303.661 93.3929 302.264 94.6201 300.91 95.6357C299.598 96.6514 298.181 97.5189 296.657 98.2383C294.668 99.1693 292.743 99.8464 290.881 100.27C289.061 100.735 286.501 100.968 283.2 100.968C278.291 100.968 274.102 99.529 270.632 96.6514C267.162 93.7314 265.427 89.8805 265.427 85.0986C265.427 82.348 265.808 80.0205 266.569 78.1162C267.331 76.1696 268.41 74.4557 269.807 72.9746C271.076 71.6204 272.536 70.499 274.187 69.6104C275.879 68.7217 277.72 67.8965 279.709 67.1348C283.518 65.7383 288.088 64.2995 293.42 62.8184C298.752 61.2949 302.645 59.9408 305.1 58.7559V52.6621C305.1 51.6042 305.015 50.2077 304.846 48.4727C304.676 46.7376 304.317 45.2777 303.767 44.0928C303.174 42.7386 302.243 41.596 300.974 40.665C299.704 39.734 298.033 39.2686 295.959 39.2686C294.097 39.2686 292.531 39.5436 291.262 40.0938C290.035 40.6016 289.04 41.1305 288.278 41.6807C288.405 42.527 288.765 43.8177 289.357 45.5527C289.95 47.2878 290.246 48.9593 290.246 50.5674C290.246 51.2868 290.056 52.1966 289.675 53.2969C289.294 54.3548 288.744 55.2012 288.024 55.8359C287.051 56.6823 285.951 57.3382 284.724 57.8037C283.539 58.2692 281.698 58.502 279.201 58.502C275.646 58.502 272.959 57.6556 271.14 55.9629C269.32 54.2279 268.41 51.985 268.41 49.2344C268.41 46.8646 269.341 44.7487 271.203 42.8867C273.107 40.9824 275.414 39.4167 278.122 38.1895C280.788 36.9199 283.856 35.9466 287.326 35.2695C290.796 34.5501 294.012 34.1904 296.975 34.1904C301.079 34.1904 304.846 34.4443 308.273 34.9521C311.701 35.4176 314.79 36.4121 317.541 37.9355C320.165 39.4167 322.238 41.5749 323.762 44.4102C325.327 47.2031 326.11 50.8636 326.11 55.3916C326.11 60.1735 326.005 65.8441 325.793 72.4033C325.624 78.9626 325.539 83.279 325.539 85.3525C325.539 87.2568 325.814 88.7591 326.364 89.8594C326.957 90.9596 327.845 91.7848 329.03 92.335C329.75 92.6735 330.871 92.8851 332.395 92.9697C333.96 93.012 335.378 93.0332 336.647 93.0332V97.667ZM305.1 64.5957C302.73 65.3997 300.381 66.3307 298.054 67.3887C295.726 68.4043 293.822 69.4834 292.341 70.626C290.775 71.8109 289.548 73.3343 288.659 75.1963C287.771 77.016 287.326 79.1742 287.326 81.6709C287.326 84.9717 288.067 87.3626 289.548 88.8438C291.071 90.3249 292.933 91.0654 295.134 91.0654C297.461 91.0654 299.366 90.5999 300.847 89.6689C302.37 88.6956 303.703 87.5107 304.846 86.1143L305.1 64.5957ZM404.758 47.6475C404.758 50.8636 403.763 53.6989 401.774 56.1533C399.785 58.5654 397.162 59.7715 393.903 59.7715C390.814 59.7715 388.19 58.9886 386.032 57.4229C383.916 55.8571 382.858 53.5508 382.858 50.5039C382.858 49.0228 382.964 47.8802 383.176 47.0762C383.387 46.2298 383.578 45.4469 383.747 44.7275C381.8 44.8122 379.748 45.4893 377.59 46.7588C375.432 48.0283 373.527 49.721 371.877 51.8369V86.6855C371.877 88.1667 372.11 89.3939 372.575 90.3672C373.041 91.3405 373.824 92.1022 374.924 92.6523C375.855 93.1178 377.357 93.5199 379.431 93.8584C381.547 94.1546 383.07 94.3239 384.001 94.3662V99H341.535V94.3662C342.593 94.2816 343.651 94.1758 344.709 94.0488C345.809 93.8796 346.74 93.668 347.502 93.4141C348.856 92.9486 349.787 92.2292 350.295 91.2559C350.803 90.2826 351.057 89.013 351.057 87.4473V50.5039C351.057 48.9805 350.697 47.6263 349.978 46.4414C349.258 45.2142 348.391 44.2409 347.375 43.5215C346.613 43.0137 345.64 42.5905 344.455 42.252C343.312 41.9134 342.043 41.6807 340.646 41.5537V36.9199L370.925 35.2695L371.877 36.2217V45.4258H372.131C375.051 42.0404 378.14 39.3955 381.398 37.4912C384.699 35.5446 388.127 34.5713 391.682 34.5713C395.617 34.5713 398.77 35.7985 401.14 38.2529C403.552 40.665 404.758 43.7965 404.758 47.6475ZM456.428 96.0801C453.719 97.265 450.821 98.3229 447.731 99.2539C444.642 100.227 440.876 100.714 436.433 100.714C429.831 100.714 424.922 99.1058 421.706 95.8896C418.532 92.6735 416.945 88.082 416.945 82.1152V43.1406H405.52V36.2852H417.199V17.0518H437.829V36.2852H455.603V43.1406H437.956V77.9258C437.956 82.877 438.633 86.3893 439.987 88.4629C441.384 90.5365 443.859 91.5732 447.414 91.5732C448.557 91.5732 450.144 91.4886 452.175 91.3193C454.206 91.1501 455.624 90.9596 456.428 90.748V96.0801Z" fill="url(#paint0_linear_6:66)"/>
<defs>
<linearGradient id="paint0_linear_6:66" x1="234.5" y1="-17" x2="234.5" y2="125" gradientUnits="userSpaceOnUse">
<stop stop-color="#B97A95"/>
<stop offset="1" stop-color="#2D62D6"/>
</linearGradient>
</defs>
</svg>
