<?xml version="1.0" standalone="no"?>
<!DOCTYPE svg PUBLIC "-//W3C//DTD SVG 20010904//EN"
 "http://www.w3.org/TR/2001/REC-SVG-20010904/DTD/svg10.dtd">
<svg version="1.0" xmlns="http://www.w3.org/2000/svg"
 width="83.000000pt" height="83.000000pt" viewBox="0 0 83.000000 83.000000"
 preserveAspectRatio="xMidYMid meet">
<metadata>
Created by potrace 1.14, written by Peter Selinger 2001-2017
</metadata>
<g transform="translate(0.000000,83.000000) scale(0.100000,-0.100000)"
fill="#000000" stroke="none">
<path d="M179 698 c-20 -35 -64 -111 -98 -170 -48 -83 -60 -112 -55 -132 3
-15 10 -26 14 -26 5 0 10 -6 12 -12 2 -7 39 -75 83 -150 l80 -138 203 0 204 0
11 30 c6 16 15 30 19 30 4 0 8 4 8 9 0 4 30 60 66 122 96 165 92 145 44 230
-23 41 -51 90 -62 109 -11 19 -37 63 -56 98 l-36 62 -201 0 -201 0 -35 -62z"/>
</g>
</svg>
